<svg xmlns="http://www.w3.org/2000/svg" viewBox="0 0 41 41"><g fill="none" fill-rule="evenodd"><path d="M29.277 33.773l-10.824 3.15C9.349 39.572.79 31.372 3.048 22.163l2.683-10.949C7.989 2.004 19.37-1.307 26.217 5.252l8.139 7.8c6.847 6.56 4.026 18.072-5.079 20.721zm4.5-25.492L22.678 1.934C13.343-3.404 1.729 3.365 1.772 14.119l.053 12.785C1.87 37.659 13.539 44.332 22.83 38.917l11.047-6.439c9.291-5.415 9.235-18.858-.1-24.197z" fill="#FEEFC3"/><path d="M13.536 32.689c-2.409-.797-5.738-2.378-7.362-3.47-1.457-1.003-2.783-2.224-3.949-3.556-.988-1.126-1.442-2.164-1.9-3.587a6.757 6.757 0 01.068-4.144c.479-1.643 1.681-3.337 2.948-4.48 3.75-3.116 7.735-3.521 10.608-3.208 2.486.271 3.627.836 5.524 1.254 2.51.752.278 5.911-1.975 5.6-1.148-.236-2.529-1.015-3.902-1.078-2.477-.114-4.853.333-6.286 1.346-1.017.718-2.311 1.821-2.721 3.145a5.001 5.001 0 00.066 3.334c.441 1.496 2.465 4.13 6.667 6.078 1.855 2.821 2.211 2.131 2.214 2.766" fill="#EA8B2F"/><path d="M15.512 8.302c3.757-2.655 7.032-3.073 8.544-2.696a5.042 5.042 0 012.917 1.634c.944 1.027 1.26 2.708 1.381 3.954.17 1.756-.614 4.043-1.933 6.132-.732 1.158-2.086 1.961-2.856 2.836-1.378 1.796 1.986 6.349 3.873 4.553 1.296-1.431 2.347-2.135 3.806-4.152 1.687-2.332 3.3-5.992 2.451-10.823-.365-1.677-1.239-3.581-2.422-4.829a6.814 6.814 0 00-3.554-2.161c-1.457-.326-2.578-.457-4.038-.173-1.728.335-3.437.865-5.024 1.62-1.743.854-4.753 2.937-6.628 4.622.549.32.129-.34 3.483-.517" fill="#F1B12A"/><path d="M32.149 22.793c.446 4.604-.805 7.656-1.878 8.774a4.918 4.918 0 01-2.849 1.702c-1.354.296-2.964-.282-4.102-.809-1.604-.744-3.196-2.585-4.353-4.786-.642-1.222-.668-2.804-1.047-3.915-.874-2.106-6.471-1.5-5.847 1.048.601 1.85.69 3.117 1.717 5.405 1.188 2.646 3.559 5.901 8.157 7.616 1.631.535 3.708.743 5.371.349a6.668 6.668 0 003.62-1.984c1-1.098 1.666-2.003 2.14-3.414.562-1.667.944-3.417 1.073-5.176.12-1.944-.2-5.61-.733-8.091-.548.314.231.285-1.269 3.281" fill="#E2672D"/></g></svg>
